<?xml version="1.0" encoding="UTF-8" standalone="no"?>
<svg
   width="46"
   height="46"
   viewBox="0 0 46 46"
   fill="none"
   version="1.1"
   id="svg4"
   sodipodi:docname="logo.svg"
   inkscape:version="1.2 (dc2aedaf03, 2022-05-15)"
   xmlns:inkscape="http://www.inkscape.org/namespaces/inkscape"
   xmlns:sodipodi="http://sodipodi.sourceforge.net/DTD/sodipodi-0.dtd"
   xmlns="http://www.w3.org/2000/svg"
   xmlns:svg="http://www.w3.org/2000/svg">
  <defs
     id="defs8" />
  <sodipodi:namedview
     id="namedview6"
     pagecolor="#ffffff"
     bordercolor="#000000"
     borderopacity="0.25"
     inkscape:showpageshadow="2"
     inkscape:pageopacity="0.0"
     inkscape:pagecheckerboard="0"
     inkscape:deskcolor="#d1d1d1"
     showgrid="false"
     inkscape:zoom="14.282609"
     inkscape:cx="23.035008"
     inkscape:cy="23.035008"
     inkscape:window-width="1600"
     inkscape:window-height="837"
     inkscape:window-x="-8"
     inkscape:window-y="-8"
     inkscape:window-maximized="1"
     inkscape:current-layer="svg4" />
  <path
     fill-rule="evenodd"
     clip-rule="evenodd"
     d="M22.5655 0C10.1031 0 0 10.1031 0 22.5655C0 35.0279 10.1031 45.131 22.5655 45.131C35.0279 45.131 45.131 35.0279 45.131 22.5655C45.131 10.1031 35.0279 0 22.5655 0ZM20.6454 28.9553L20.6308 28.9821C20.1306 29.858 19.8769 30.3021 19.5255 30.6363C19.1425 31.0023 18.6838 31.2682 18.1788 31.417C17.7177 31.5439 17.2029 31.5439 16.1709 31.5439H11.7915C10.8717 31.5439 10.4154 31.5439 10.1397 31.3658C9.83963 31.1706 9.65664 30.851 9.63469 30.4948C9.61761 30.1679 9.84451 29.7677 10.3007 28.9699L21.1138 9.91282C21.575 9.10281 21.8067 8.69781 22.0995 8.54898C22.4142 8.38796 22.7924 8.38796 23.1096 8.54898C23.4024 8.69781 23.6366 9.10281 24.0953 9.91282L26.3179 13.7921L26.3301 13.8116C26.8278 14.6801 27.0791 15.1193 27.1889 15.5829C27.3109 16.0879 27.3109 16.6198 27.1889 17.1248C27.0791 17.5908 26.8278 18.0348 26.3228 18.9156L20.643 28.9553H20.6454ZM35.1743 31.3609C34.8962 31.5439 34.4326 31.5439 33.5055 31.5439H27.2304C26.3057 31.5439 25.8397 31.5439 25.5664 31.3658C25.2663 31.1706 25.0834 30.8437 25.0614 30.4899C25.0443 30.1654 25.2737 29.7702 25.7323 28.9772L25.7421 28.9577L28.8748 23.5805C29.3359 22.7875 29.5677 22.3947 29.8556 22.2435C30.1727 22.0824 30.5436 22.0824 30.8583 22.2435C31.1438 22.3898 31.3682 22.7656 31.8098 23.5146L31.8464 23.5756L34.9889 28.9529C35.0035 28.9797 35.0206 29.0041 35.0352 29.0309C35.4719 29.7824 35.694 30.1654 35.6769 30.4826C35.6598 30.8364 35.4719 31.1633 35.1718 31.3585L35.1743 31.3609Z"
     fill="black"
     id="path2" />
  <path
     style="fill:#ff0000;stroke:#000000;stroke-width:0.350076"
     d="M 21.599696,45.082077 C 15.70913,44.729157 10.679919,42.506951 6.648889,38.475921 2.9383337,34.765365 0.67272444,29.986933 0.14116674,24.750381 0.02876724,23.643095 0.04769251,21.204582 0.17740446,20.081163 0.67222328,15.7956 2.2854019,11.90171 4.9748628,8.5010591 5.7491162,7.5220656 7.6891864,5.6038329 8.6818874,4.835761 11.286992,2.8201417 14.048002,1.4738785 17.15496,0.70430635 25.929764,-1.4691518 35.13032,1.8083779 40.564299,9.0434551 c 0.875664,1.1659039 1.44275,2.0864289 2.149551,3.4892699 1.487203,2.951763 2.251453,5.996327 2.35509,9.382039 0.162731,5.316296 -1.54614,10.45673 -4.87625,14.668189 -0.895077,1.131967 -2.876964,3.063304 -4.029829,3.92704 -3.39245,2.541657 -7.220983,4.050171 -11.342465,4.469144 -0.808748,0.08221 -2.607203,0.139697 -3.2207,0.10294 z M 18.638263,31.285183 c 0.564957,-0.266842 1.067945,-0.721415 1.445099,-1.306 0.430659,-0.667518 6.577847,-11.560242 6.890844,-12.210472 0.460592,-0.956847 0.447773,-1.954521 -0.03759,-2.925484 C 26.643974,14.257805 23.988269,9.61559 23.648079,9.0948147 23.316039,8.586514 23.048907,8.4094819 22.616328,8.4110587 22.200611,8.412571 21.897773,8.5793256 21.647482,8.9445355 21.383691,9.3294448 9.9743382,29.434829 9.7577153,29.896499 c -0.090344,0.192542 -0.16457,0.437732 -0.164946,0.544867 -0.0014,0.39894 0.3087657,0.881808 0.6644607,1.034435 0.07702,0.03305 1.88866,0.05355 4.025875,0.04557 l 3.885845,-0.01452 z m 16.483681,0.14254 c 0.292681,-0.138886 0.586082,-0.611351 0.585135,-0.942246 -3.51e-4,-0.131396 -0.07888,-0.406876 -0.174457,-0.612178 -0.206076,-0.442667 -3.790318,-6.593455 -4.172875,-7.160919 -0.504741,-0.748706 -1.249397,-0.841065 -1.824109,-0.226241 -0.172783,0.184842 -3.838617,6.404223 -4.240811,7.194875 -0.331915,0.652493 -0.333769,1.060115 -0.0067,1.475899 0.303566,0.385922 0.214602,0.379239 5.08791,0.382204 4.023266,0.0024 4.53114,-0.0095 4.74592,-0.111394 z"
     id="path306" />
</svg>
